<?xml version="1.0" encoding="UTF-8" standalone="no"?>
<svg
   xmlns:dc="http://purl.org/dc/elements/1.1/"
   xmlns:cc="http://creativecommons.org/ns#"
   xmlns:rdf="http://www.w3.org/1999/02/22-rdf-syntax-ns#"
   xmlns:svg="http://www.w3.org/2000/svg"
   xmlns="http://www.w3.org/2000/svg"
   xmlns:sodipodi="http://sodipodi.sourceforge.net/DTD/sodipodi-0.dtd"
   xmlns:inkscape="http://www.inkscape.org/namespaces/inkscape"
   width="210mm"
   height="297mm"
   viewBox="0 0 210 297"
   version="1.1"
   id="svg8"
   inkscape:version="1.0.1 (c497b03c, 2020-09-10)">
  <defs
     id="defs2" />
  <sodipodi:namedview
     id="base"
     pagecolor="#ffffff"
     bordercolor="#666666"
     borderopacity="1.0"
     inkscape:pageopacity="0.0"
     inkscape:pageshadow="2"
     inkscape:zoom="1.4"
     inkscape:cx="400"
     inkscape:cy="560"
     inkscape:document-units="mm"
     inkscape:current-layer="layer1"
     inkscape:document-rotation="0"
     showgrid="false"
     inkscape:window-width="1252"
     inkscape:window-height="755"
     inkscape:window-x="0"
     inkscape:window-y="23"
     inkscape:window-maximized="0" />
  <metadata
     id="metadata5">
    <rdf:RDF>
      <cc:Work
         rdf:about="">
        <dc:format>image/svg+xml</dc:format>
        <dc:type
           rdf:resource="http://purl.org/dc/dcmitype/StillImage" />
        <dc:title></dc:title>
      </cc:Work>
    </rdf:RDF>
  </metadata>
  <g
     inkscape:label="Layer 1"
     inkscape:groupmode="layer"
     id="layer1">
    <rect
       style="fill:#000000;stroke-width:0.264583"
       id="rect21"
       width="141.74107"
       height="67.46875"
       x="26.080355"
       y="129.07887" />
    <path
       d="M 47.493578,165.35642 V 144.8147 h 4.78234 c 1.23878,0 2.27542,0.12383 3.10965,0.37174 0.83423,0.24765 1.50336,0.64029 2.00713,1.17687 0.50377,0.5371 0.8591,1.19777 1.06548,1.98252 0.21484,0.77629 0.32226,1.73435 0.32226,2.87417 v 7.40886 c 0,1.1729 -0.10742,2.16826 -0.32226,2.98609 -0.21458,0.81756 -0.56992,1.5113 -1.06548,2.08148 -0.48736,0.56991 -1.13982,0.99113 -1.95765,1.26365 -0.81756,0.26432 -1.82113,0.39634 -3.01043,0.39634 z m 3.74147,-2.62652 h 1.06548 c 0.37174,0 0.69797,-0.0331 0.97896,-0.099 0.28072,-0.0661 0.51594,-0.14472 0.70617,-0.23547 0.18997,-0.091 0.3466,-0.23945 0.47096,-0.44609 0.13203,-0.20638 0.23098,-0.39661 0.29713,-0.56991 0.0661,-0.17357 0.11562,-0.43366 0.14869,-0.78053 0.0331,-0.35507 0.0537,-0.65669 0.0619,-0.90434 0.008,-0.24792 0.0124,-0.61542 0.0124,-1.10278 v -7.50809 c 0,-0.48736 -0.008,-0.87947 -0.0249,-1.17686 a 5.5176208,5.5176208 0 0 0 -0.12382,-0.89218 c -0.0579,-0.30559 -0.1487,-0.54107 -0.27252,-0.70617 -0.11563,-0.1651 -0.27252,-0.3138 -0.47096,-0.44609 -0.19818,-0.14023 -0.44583,-0.23548 -0.74348,-0.28495 -0.29713,-0.0577 -0.65643,-0.0865 -1.07765,-0.0865 h -1.02843 z m 10.41956,2.62652 V 144.8147 h 3.69226 v 20.54172 h -3.69253 z m 11.99303,0.27252 c -1.94098,0 -3.34089,-0.60695 -4.19999,-1.82112 -0.85064,-1.21444 -1.27609,-2.98186 -1.27609,-5.30278 v -6.69026 c 0,-1.1811 0.0908,-2.1971 0.27252,-3.048 0.18997,-0.85883 0.50403,-1.61051 0.94165,-2.25478 0.43789,-0.64426 1.04061,-1.12712 1.80896,-1.44938 0.76809,-0.32227 1.70974,-0.4834 2.82469,-0.4834 2.032,0 3.48986,0.4998 4.37356,1.49913 0.88371,0.99113 1.32557,2.49873 1.32557,4.52226 v 1.00357 h -3.58061 v -1.06548 c 0,-0.45429 -0.0124,-0.82603 -0.037,-1.11496 a 3.9743062,3.9743062 0 0 0 -0.1487,-0.8673 c -0.0744,-0.29739 -0.18573,-0.52467 -0.33469,-0.68157 -0.14843,-0.15689 -0.35084,-0.28495 -0.60696,-0.38391 -0.25611,-0.0992 -0.56991,-0.14869 -0.94165,-0.14869 -0.28046,0 -0.53261,0.037 -0.75565,0.11139 -0.21484,0.0662 -0.39635,0.15293 -0.54504,0.26008 -0.1487,0.0992 -0.27676,0.24368 -0.38418,0.43392 -0.0992,0.18971 -0.17753,0.37571 -0.23548,0.55748 -0.0495,0.1733 -0.0908,0.40058 -0.12382,0.6813 a 15.275719,15.275719 0 0 0 -0.0495,0.74348 22.48191,22.48191 0 0 0 -0.0124,0.83 v 8.2886 c 0,1.23878 0.15266,2.14736 0.45826,2.72573 0.30586,0.56992 0.8882,0.85461 1.74704,0.85461 0.44609,0 0.81756,-0.0825 1.11496,-0.24765 0.30559,-0.17357 0.54107,-0.42942 0.70643,-0.76809 0.1733,-0.34687 0.29316,-0.73924 0.35931,-1.17686 0.0741,-0.44609 0.11112,-0.98293 0.11112,-1.61079 v -1.68486 h -2.21721 v -2.41618 h 5.58747 v 10.43199 h -2.42861 l -0.27252,-2.08147 c -0.61913,1.5695 -1.77985,2.35399 -3.48139,2.35399 z m 9.11887,-0.27252 V 144.8147 h 3.69199 v 20.54172 z m 8.85825,0 v -17.77867 h -3.44408 v -2.76278 h 10.51851 v 2.76278 h -3.3327 v 17.77894 h -3.74147 z m 12.327732,-7.21069 h 2.75034 l -1.3753,-8.43703 z m -4.769912,7.21069 4.175122,-20.54172 h 3.90261 l 4.16295,20.54172 h -3.48138 l -0.83027,-4.7699 h -3.55573 l -0.84244,4.7699 h -3.530602 z m 14.272682,0 V 144.8147 h 3.74148 v 17.95251 h 4.9186 v 2.58921 z m 15.56121,0.28496 c -1.0078,0 -1.8587,-0.14023 -2.55244,-0.42122 -0.69374,-0.28892 -1.23058,-0.71437 -1.61052,-1.27608 -0.37994,-0.56991 -0.65246,-1.21418 -0.81756,-1.93278 -0.15716,-0.72681 -0.23548,-1.59015 -0.23548,-2.58948 h 3.45652 c 0,0.56171 0.0206,1.02843 0.0619,1.40017 0.0415,0.37174 0.12409,0.73502 0.24791,1.09009 0.12383,0.34713 0.31803,0.60722 0.58209,0.78052 0.26458,0.17357 0.59901,0.25638 1.00382,0.24791 0.25612,0 0.4789,-0.0452 0.66887,-0.13626 0.19844,-0.0907 0.35931,-0.1942 0.48339,-0.30956 0.13203,-0.11589 0.24342,-0.29766 0.33444,-0.54531 0.0908,-0.25611 0.1569,-0.47889 0.19844,-0.66913 0.0492,-0.19817 0.0823,-0.4871 0.099,-0.8673 0.0246,-0.38815 0.037,-0.70617 0.037,-0.95382 0.008,-0.24792 0.0124,-0.61119 0.0124,-1.09009 0,-0.5207 -0.0124,-0.95409 -0.037,-1.30095 a 6.9683312,6.9683312 0 0 0 -0.13627,-1.06575 c -0.0744,-0.36327 -0.1778,-0.64822 -0.30982,-0.8546 -0.13229,-0.20664 -0.31803,-0.37597 -0.55748,-0.508 -0.23971,-0.13229 -0.52864,-0.19844 -0.8673,-0.19844 -0.48737,0 -0.90038,0.16537 -1.23905,0.49557 -0.3302,0.33046 -0.56568,0.75988 -0.70617,1.28852 h -3.02313 l 0.1614,-11.41069 h 9.3292 v 3.20887 h -6.31904 l -0.21061,4.84452 c 0.27252,-0.29766 0.64823,-0.5371 1.12739,-0.71887 0.48736,-0.18997 1.0242,-0.29316 1.61079,-0.30957 0.80115,-0.0331 1.49886,0.0907 2.09364,0.37148 0.59479,0.28099 1.06971,0.7022 1.42478,1.26391 0.36354,0.56171 0.63183,1.22661 0.8054,1.9947 0.17356,0.75988 0.26008,1.63115 0.26008,2.61408 0,0.90858 -0.0452,1.71794 -0.13626,2.42835 a 9.3098937,9.3098937 0 0 1 -0.48313,2.06904 c -0.23124,0.66093 -0.54504,1.20597 -0.94165,1.63539 -0.38814,0.42942 -0.90435,0.77655 -1.54861,1.04087 -0.64426,0.25585 -1.39991,0.38391 -2.26748,0.38391 z m 12.6619,0 c -1.00754,0 -1.85844,-0.14023 -2.55217,-0.42122 -0.69374,-0.28892 -1.23058,-0.71437 -1.61052,-1.27608 -0.38021,-0.56991 -0.65273,-1.21418 -0.81757,-1.93278 -0.15716,-0.72681 -0.23547,-1.59015 -0.23547,-2.58948 h 3.45651 c 0,0.56171 0.0206,1.02843 0.0619,1.40017 0.0413,0.37174 0.12383,0.73502 0.24765,1.09009 0.12409,0.34713 0.31803,0.60722 0.58235,0.78052 0.26458,0.17357 0.59902,0.25638 1.00357,0.24791 0.25611,0 0.47916,-0.0452 0.66913,-0.13626 0.19843,-0.0907 0.3593,-0.1942 0.48313,-0.30956 0.13229,-0.11589 0.24368,-0.29766 0.33469,-0.54531 0.0908,-0.25611 0.1569,-0.47889 0.19818,-0.66913 0.0495,-0.19817 0.0825,-0.4871 0.099,-0.8673 0.0249,-0.38815 0.037,-0.70617 0.037,-0.95382 0.008,-0.24792 0.0127,-0.61119 0.0127,-1.09009 0,-0.5207 -0.0124,-0.95409 -0.0373,-1.30095 a 6.9551021,6.9551021 0 0 0 -0.13626,-1.06575 c -0.0744,-0.36327 -0.17754,-0.64822 -0.30957,-0.8546 -0.13229,-0.20664 -0.31803,-0.37597 -0.55774,-0.508 -0.23945,-0.13229 -0.52864,-0.19844 -0.8673,-0.19844 -0.4871,0 -0.90012,0.16537 -1.23878,0.49557 -0.33073,0.33046 -0.56595,0.75988 -0.70644,1.28852 h -3.02286 l 0.16113,-11.41069 h 9.32921 v 3.20887 h -6.31852 l -0.21061,4.84452 c 0.27252,-0.29766 0.64823,-0.5371 1.12713,-0.71887 0.48736,-0.18997 1.02446,-0.29316 1.61078,-0.30957 0.80116,-0.0331 1.49913,0.0907 2.09391,0.37148 0.59479,0.28099 1.06945,0.7022 1.42479,1.26391 0.36327,0.56171 0.63182,1.22661 0.80539,1.9947 0.1733,0.75988 0.26008,1.63115 0.26008,2.61408 0,0.90858 -0.0455,1.71794 -0.13626,2.42835 a 9.3098937,9.3098937 0 0 1 -0.48313,2.06904 c -0.23124,0.66093 -0.54504,1.20597 -0.94191,1.63539 -0.38788,0.42942 -0.90435,0.77655 -1.54834,1.04087 -0.64427,0.25585 -1.40018,0.38391 -2.26749,0.38391 z m -95.458762,17.58685 c 0.59664,0 1.06072,-0.16933 1.3925,-0.50773 0.33179,-0.33867 0.49768,-0.79904 0.49768,-1.38245 v -5.26838 h -0.91493 v 5.26838 c 0,0.30163 -0.0804,0.55298 -0.2413,0.75406 -0.16086,0.20109 -0.41883,0.30163 -0.77417,0.30163 -0.37544,0 -0.65352,-0.11906 -0.83449,-0.35692 -0.18098,-0.23813 -0.27146,-0.56145 -0.27146,-0.97023 h -0.91493 c 0,0.68368 0.18256,1.21496 0.54795,1.59358 0.36512,0.37862 0.86968,0.56806 1.51315,0.56806 z m 5.57001,0 c 0.53631,0 0.99033,-0.13414 1.36234,-0.40216 0.372,-0.26803 0.63182,-0.6268 0.7792,-1.0758 v 1.40758 h 0.91493 v -5.51973 h -0.91493 v 1.40758 c -0.14738,-0.449 -0.4072,-0.80777 -0.7792,-1.0758 -0.37201,-0.26802 -0.82603,-0.40216 -1.36234,-0.40216 -0.48948,0 -0.92498,0.11377 -1.30704,0.34184 -0.38206,0.22781 -0.6821,0.55642 -0.89985,0.98531 -0.21775,0.42889 -0.32676,0.9316 -0.32676,1.50812 0,0.57653 0.10901,1.07739 0.32676,1.5031 0.21775,0.42572 0.51779,0.75248 0.89985,0.98028 0.38206,0.22781 0.81756,0.34184 1.30704,0.34184 z m 0.26141,-0.80433 c -0.56304,0 -1.01389,-0.17939 -1.35229,-0.5379 -0.33866,-0.35851 -0.50773,-0.85301 -0.50773,-1.48299 0,-0.62997 0.16933,-1.12448 0.50773,-1.48299 0.33867,-0.35851 0.78925,-0.53789 1.35229,-0.53789 0.36195,0 0.68527,0.082 0.97022,0.24632 0.28496,0.16404 0.50774,0.40058 0.66861,0.70909 0.16086,0.30797 0.2413,0.66331 0.2413,1.06547 0,0.40217 -0.0804,0.75565 -0.2413,1.06098 -0.16087,0.3048 -0.38365,0.54108 -0.66861,0.70856 -0.28495,0.16748 -0.60827,0.25135 -0.97022,0.25135 z m 6.92732,0.73395 2.16164,-5.51973 h -0.9853 l -1.70921,4.54448 -1.72932,-4.54448 h -0.98531 l 2.16165,5.51973 z m 5.31865,0.0704 c 0.53631,0 0.99034,-0.13414 1.36234,-0.40216 0.37201,-0.26802 0.63183,-0.6268 0.7792,-1.0758 v 1.40759 h 0.91493 v -5.51974 h -0.91493 v 1.40758 c -0.14737,-0.449 -0.40719,-0.80777 -0.7792,-1.07579 -0.372,-0.26803 -0.82603,-0.40217 -1.36234,-0.40217 -0.48948,0 -0.92498,0.11377 -1.30704,0.34184 -0.38206,0.22781 -0.6821,0.55642 -0.89985,0.98531 -0.21775,0.42889 -0.32676,0.9316 -0.32676,1.50812 0,0.57653 0.10901,1.07739 0.32676,1.5031 0.21775,0.42572 0.51779,0.75248 0.89985,0.98028 0.38206,0.22781 0.81756,0.34184 1.30704,0.34184 z m 0.26141,-0.80433 c -0.56303,0 -1.01388,-0.17939 -1.35228,-0.5379 -0.33867,-0.35851 -0.50774,-0.85301 -0.50774,-1.48299 0,-0.62997 0.16933,-1.12448 0.50774,-1.48299 0.33866,-0.35851 0.78925,-0.53789 1.35228,-0.53789 0.36195,0 0.68527,0.082 0.97023,0.24632 0.28495,0.16405 0.50773,0.40058 0.6686,0.70909 0.16087,0.30797 0.2413,0.66331 0.2413,1.06547 0,0.40217 -0.0804,0.75565 -0.2413,1.06098 -0.16087,0.3048 -0.38365,0.54108 -0.6686,0.70856 -0.28496,0.16748 -0.60828,0.25135 -0.97023,0.25135 z m 6.54526,0.80433 c 0.4826,0 0.88821,-0.0905 1.21656,-0.27146 0.32835,-0.18097 0.57308,-0.41539 0.73395,-0.70379 a 1.8872729,1.8872729 0 0 0 0.2413,-0.93504 c 0,-0.44899 -0.0971,-0.80936 -0.29157,-1.08082 -0.19447,-0.27146 -0.43074,-0.47413 -0.70882,-0.60828 -0.27808,-0.13414 -0.64505,-0.2749 -1.10093,-0.42227 -0.37544,-0.12065 -0.67019,-0.22966 -0.88477,-0.32676 a 1.5044208,1.5044208 0 0 1 -0.53789,-0.40217 c -0.1442,-0.17092 -0.21617,-0.3937 -0.21617,-0.6686 0,-0.34846 0.1106,-0.61833 0.33179,-0.80936 0.22119,-0.19103 0.51594,-0.28655 0.88477,-0.28655 0.40216,0 0.72046,0.10716 0.95514,0.32174 0.23469,0.21431 0.37862,0.46249 0.43233,0.74401 h 0.98531 c -0.0669,-0.52282 -0.30507,-0.95356 -0.71385,-1.29196 -0.40878,-0.33867 -0.96176,-0.50774 -1.65893,-0.50774 -0.449,0 -0.83953,0.077 -1.17131,0.23125 -0.33179,0.15425 -0.58659,0.372 -0.76412,0.65352 -0.17754,0.28151 -0.26644,0.60669 -0.26644,0.97525 0,0.42889 0.0955,0.77417 0.28655,1.03558 0.19103,0.26141 0.42227,0.45773 0.69373,0.58817 0.27147,0.1307 0.63183,0.26987 1.08083,0.41725 0.38206,0.12065 0.68368,0.23283 0.90487,0.33681 a 1.6028458,1.6028458 0 0 1 0.55801,0.4273 c 0.15081,0.18098 0.22622,0.4154 0.22622,0.70379 0,0.33523 -0.10716,0.60987 -0.32174,0.82445 -0.21431,0.21431 -0.52281,0.32173 -0.92498,0.32173 -0.30824,0 -0.5715,-0.0619 -0.78925,-0.186 -0.21775,-0.12409 -0.3855,-0.28152 -0.50271,-0.47255 -0.11721,-0.19103 -0.186,-0.38708 -0.20611,-0.58817 h -0.97525 c 0.0336,0.38206 0.15927,0.72232 0.37703,1.0205 0.21775,0.29819 0.50932,0.53287 0.87471,0.70379 0.36512,0.17092 0.78264,0.25665 1.25174,0.25665 z m 5.86158,0 c 0.70379,0 1.28694,-0.186 1.74943,-0.558 0.46249,-0.37201 0.74745,-0.8763 0.8546,-1.51315 h -0.9652 c -0.0669,0.39555 -0.24977,0.70723 -0.54795,0.93503 -0.29819,0.22781 -0.6686,0.34185 -1.11099,0.34185 -0.32173,0 -0.61489,-0.0738 -0.87974,-0.2212 -0.26458,-0.14737 -0.47757,-0.37359 -0.63844,-0.67865 -0.16086,-0.30507 -0.2413,-0.6821 -0.2413,-1.1311 0,-0.44899 0.0804,-0.82603 0.2413,-1.13109 0.16087,-0.30506 0.3736,-0.53128 0.63844,-0.67866 0.26459,-0.14737 0.55801,-0.22119 0.87974,-0.22119 0.44239,0 0.8128,0.11219 1.11099,0.33682 0.29818,0.22463 0.48101,0.53446 0.54795,0.93001 h 0.9652 c -0.10715,-0.62998 -0.39211,-1.13268 -0.8546,-1.50813 -0.46249,-0.37544 -1.04564,-0.56303 -1.74943,-0.56303 -0.52943,0 -0.9988,0.11377 -1.40758,0.34184 -0.40878,0.22781 -0.72893,0.55642 -0.96017,0.98531 -0.23125,0.42889 -0.34687,0.9316 -0.34687,1.50812 0,0.57653 0.11562,1.07739 0.34687,1.5031 0.23124,0.42572 0.55139,0.75248 0.96017,0.98028 0.40878,0.22781 0.87815,0.34184 1.40758,0.34184 z m 4.71541,-0.0704 v -2.90565 c 0,-0.60986 0.16404,-1.04722 0.49265,-1.31207 0.32835,-0.26458 0.75062,-0.39687 1.26683,-0.39687 h 0.28151 v -0.99563 c -0.4826,0 -0.89826,0.10583 -1.24671,0.31671 -0.34846,0.21113 -0.61331,0.508 -0.79428,0.88979 v -1.11601 h -0.91493 v 5.51973 z m 3.40836,-6.57542 c 0.18785,0 0.33867,-0.0519 0.45244,-0.15584 0.11377,-0.10398 0.17092,-0.23971 0.17092,-0.40719 0,-0.16748 -0.0569,-0.30322 -0.17092,-0.4072 -0.11377,-0.10398 -0.26459,-0.15584 -0.45244,-0.15584 -0.18786,0 -0.33867,0.0519 -0.45244,0.15611 -0.11377,0.10371 -0.17092,0.23945 -0.17092,0.40693 0,0.16748 0.0569,0.30321 0.17092,0.40745 0.11377,0.10372 0.26458,0.15558 0.45244,0.15558 z m 0.45244,6.57542 v -5.51973 h -0.91493 v 5.51973 z m 2.38283,2.61409 v -4.02167 c 0.14076,0.44238 0.39714,0.79931 0.76915,1.07077 0.372,0.27146 0.82603,0.40746 1.36234,0.40746 0.48948,0 0.92498,-0.1143 1.30704,-0.34211 0.38206,-0.2278 0.68209,-0.55456 0.89985,-0.98028 0.21775,-0.42571 0.32676,-0.92657 0.32676,-1.50283 0,-0.57679 -0.10901,-1.0795 -0.32676,-1.50813 -0.21776,-0.42915 -0.51779,-0.75776 -0.89985,-0.98557 -0.38206,-0.22781 -0.81756,-0.34184 -1.30704,-0.34184 -0.53631,0 -0.99034,0.13573 -1.36234,0.40746 -0.37201,0.27119 -0.62839,0.62812 -0.76915,1.0705 v -1.40758 h -0.91493 v 8.13382 z m 1.87008,-3.34804 c -0.35534,0 -0.67707,-0.0839 -0.9652,-0.25135 -0.2884,-0.16748 -0.51276,-0.40376 -0.67363,-0.70882 -0.16087,-0.30507 -0.2413,-0.65855 -0.2413,-1.06072 0,-0.40216 0.0804,-0.7575 0.2413,-1.06574 0.16087,-0.30824 0.3855,-0.54451 0.67363,-0.70882 0.28839,-0.16404 0.60986,-0.24606 0.9652,-0.24606 0.56965,0 1.02394,0.17912 1.36234,0.53763 0.33867,0.35851 0.50773,0.85302 0.50773,1.48299 0,0.62998 -0.16933,1.12448 -0.50773,1.48299 -0.33867,0.35851 -0.79269,0.5379 -1.36234,0.5379 z m 6.62569,0.73395 v -0.80433 h -0.56303 c -0.32173,0 -0.54795,-0.0654 -0.67865,-0.19579 -0.13071,-0.13097 -0.19606,-0.37386 -0.19606,-0.72919 v -2.99614 h 1.42769 v -0.79428 h -1.42769 v -1.37742 h -0.92498 v 1.37742 h -0.82445 v 0.79428 h 0.82445 v 2.97603 c 0,0.62997 0.13917,1.07924 0.41724,1.34726 0.27808,0.26802 0.69877,0.40216 1.2618,0.40216 z m 6.736302,0.0603 c 0.86465,0 1.5785,-0.21272 2.14153,-0.63843 0.56304,-0.42572 0.95171,-1.00701 1.16629,-1.7444 h -0.9652 c -0.18098,0.4691 -0.47255,0.84296 -0.87472,1.12104 -0.40216,0.27807 -0.89482,0.41724 -1.47796,0.41724 -0.46249,0 -0.8763,-0.11218 -1.24169,-0.33681 -0.36512,-0.22463 -0.65352,-0.54451 -0.86466,-0.96017 -0.21113,-0.4154 -0.3167,-0.90144 -0.3167,-1.45786 0,-0.56303 0.10557,-1.0541 0.3167,-1.47293 0.21114,-0.41884 0.49927,-0.74084 0.86466,-0.9652 0.36513,-0.22463 0.7792,-0.33682 1.24169,-0.33682 0.58314,0 1.0758,0.13917 1.47796,0.41725 0.40217,0.27808 0.69374,0.65193 0.87472,1.12104 h 0.9652 c -0.21432,-0.73739 -0.60325,-1.31868 -1.16629,-1.7444 -0.56303,-0.42571 -1.27688,-0.63844 -2.14153,-0.63844 -0.66358,0 -1.25016,0.1524 -1.75948,0.45773 -0.50933,0.3048 -0.90647,0.7321 -1.19142,1.28164 -0.284962,0.54954 -0.427302,1.17634 -0.427302,1.88013 0,0.69718 0.14234,1.31869 0.427302,1.86532 0.28495,0.5461 0.68209,0.97155 1.19142,1.27661 0.50932,0.30506 1.0959,0.45773 1.75948,0.45773 z m 7.03791,0.0101 c 0.52943,0 1.00383,-0.11377 1.42267,-0.34184 0.41883,-0.2278 0.74745,-0.55456 0.98531,-0.98028 0.23812,-0.42571 0.35692,-0.92657 0.35692,-1.50283 0,-0.57679 -0.11906,-1.0795 -0.35692,-1.50813 -0.23813,-0.42915 -0.56621,-0.75776 -0.98531,-0.98557 -0.41884,-0.22781 -0.89324,-0.34184 -1.42267,-0.34184 -0.52943,0 -1.00383,0.11377 -1.42266,0.34184 -0.41884,0.22781 -0.74904,0.55642 -0.99034,0.98531 -0.2413,0.42889 -0.36195,0.9316 -0.36195,1.50812 0,0.57653 0.12065,1.07739 0.36195,1.5031 0.2413,0.42572 0.5715,0.75248 0.99034,0.98028 0.41883,0.22781 0.89323,0.34184 1.42266,0.34184 z m 0,-0.80433 a 1.9126729,1.9126729 0 0 1 -0.9099,-0.22118 c -0.27808,-0.14737 -0.50271,-0.37359 -0.67363,-0.67866 -0.17092,-0.30506 -0.25638,-0.67865 -0.25638,-1.12104 0,-0.44899 0.0855,-0.82603 0.25638,-1.13109 0.17092,-0.30507 0.39555,-0.53128 0.67363,-0.67866 a 1.9126729,1.9126729 0 0 1 0.9099,-0.22119 c 0.32835,0 0.63183,0.0738 0.90991,0.22119 0.27807,0.14738 0.5027,0.37359 0.67362,0.67866 0.17093,0.30506 0.25639,0.6821 0.25639,1.13109 0,0.44239 -0.0855,0.81598 -0.25639,1.12104 -0.17092,0.30507 -0.39555,0.53129 -0.67362,0.67866 a 1.9126729,1.9126729 0 0 1 -0.90991,0.22119 z m 4.87627,0.73396 v -2.92577 c 0,-0.61648 0.14579,-1.08426 0.43736,-1.40229 0.29157,-0.31856 0.6821,-0.47784 1.17131,-0.47784 0.45588,0 0.81756,0.1442 1.08585,0.43233 0.26802,0.2884 0.40217,0.70379 0.40217,1.24672 v 3.12685 h 0.91493 v -2.92577 c 0,-0.61648 0.14578,-1.08426 0.43735,-1.40229 0.29157,-0.31856 0.67866,-0.47784 1.16126,-0.47784 0.46249,0 0.82603,0.1442 1.09088,0.43233 0.26458,0.2884 0.39714,0.70379 0.39714,1.24672 v 3.12685 h 0.91492 v -3.20728 c 0,-0.77761 -0.19605,-1.3724 -0.58816,-1.78462 -0.39212,-0.41222 -0.90991,-0.61833 -1.55337,-0.61833 -0.45588,0 -0.86466,0.12224 -1.22661,0.36698 -0.36195,0.24474 -0.61992,0.59161 -0.77417,1.0406 -0.14737,-0.46249 -0.3937,-0.8128 -0.73898,-1.05039 -0.34528,-0.23813 -0.75248,-0.35719 -1.22158,-0.35719 -0.449,0 -0.84614,0.11562 -1.19142,0.34687 -0.34528,0.23125 -0.58473,0.56462 -0.71888,1.00039 v -1.25677 h -0.91493 v 5.51974 z m 10.34574,2.61408 v -4.02167 c 0.14076,0.44239 0.39714,0.79931 0.76915,1.07077 0.372,0.27146 0.82602,0.40746 1.36233,0.40746 0.48948,0 0.92499,-0.1143 1.30705,-0.34211 0.38205,-0.2278 0.68209,-0.55456 0.89984,-0.98028 0.21776,-0.42571 0.32676,-0.92657 0.32676,-1.50283 0,-0.57679 -0.109,-1.0795 -0.32676,-1.50813 -0.21775,-0.42915 -0.51779,-0.75776 -0.89984,-0.98557 -0.38206,-0.22781 -0.81757,-0.34184 -1.30705,-0.34184 -0.53631,0 -0.99033,0.13573 -1.36233,0.40746 -0.37201,0.2712 -0.62839,0.62812 -0.76915,1.0705 v -1.40758 h -0.91493 v 8.13382 z m 1.87008,-3.34804 c -0.35534,0 -0.67707,-0.0839 -0.9652,-0.25135 -0.2884,-0.16748 -0.51277,-0.40376 -0.67363,-0.70882 -0.16087,-0.30507 -0.2413,-0.65855 -0.2413,-1.06072 0,-0.40216 0.0804,-0.7575 0.2413,-1.06574 0.16086,-0.30824 0.3855,-0.54451 0.67363,-0.70882 0.28839,-0.16404 0.60986,-0.24606 0.9652,-0.24606 0.56964,0 1.02393,0.17912 1.36234,0.53763 0.33866,0.35851 0.50773,0.85302 0.50773,1.48299 0,0.62998 -0.16933,1.12448 -0.50773,1.48299 -0.33867,0.35851 -0.7927,0.5379 -1.36234,0.5379 z m 6.25369,0.80433 c 0.53631,0 0.99033,-0.13414 1.36234,-0.40216 0.372,-0.26802 0.63182,-0.6268 0.7792,-1.0758 v 1.40759 h 0.91492 v -5.51974 h -0.91492 v 1.40758 c -0.14738,-0.449 -0.4072,-0.80777 -0.7792,-1.07579 -0.37201,-0.26803 -0.82603,-0.40217 -1.36234,-0.40217 -0.48948,0 -0.92499,0.11377 -1.30704,0.34184 -0.38206,0.22781 -0.6821,0.55642 -0.89985,0.98531 -0.21775,0.42889 -0.32676,0.9316 -0.32676,1.50812 0,0.57653 0.10901,1.07739 0.32676,1.5031 0.21775,0.42572 0.51779,0.75248 0.89985,0.98028 0.38205,0.22781 0.81756,0.34184 1.30704,0.34184 z m 0.26141,-0.80433 c -0.56304,0 -1.01389,-0.17939 -1.35229,-0.5379 -0.33867,-0.35851 -0.50773,-0.85301 -0.50773,-1.48299 0,-0.62997 0.16933,-1.12448 0.50773,-1.48299 0.33867,-0.35851 0.78925,-0.53789 1.35229,-0.53789 0.36195,0 0.68527,0.082 0.97022,0.24632 0.28496,0.16405 0.50774,0.40058 0.66861,0.70909 0.16086,0.30797 0.2413,0.66331 0.2413,1.06547 0,0.40217 -0.0804,0.75565 -0.2413,1.06098 -0.16087,0.3048 -0.38365,0.54108 -0.66861,0.70856 -0.28495,0.16748 -0.60827,0.25135 -0.97022,0.25135 z m 5.16784,0.73396 v -2.92577 c 0,-0.62336 0.15081,-1.09749 0.45244,-1.42266 0.30162,-0.32517 0.70379,-0.48763 1.2065,-0.48763 0.4826,0 0.86465,0.14737 1.14617,0.44238 0.28152,0.29502 0.42228,0.71703 0.42228,1.26683 v 3.12685 h 0.91492 v -3.20728 c 0,-0.77761 -0.19764,-1.3724 -0.59319,-1.78462 -0.39555,-0.41222 -0.91493,-0.61833 -1.5584,-0.61833 -0.4691,0 -0.88318,0.12065 -1.24169,0.36195 -0.35851,0.2413 -0.60827,0.58658 -0.74903,1.03558 v -1.30704 h -0.91493 v 5.51974 z m 7.11835,2.61408 3.27766,-8.13382 h -1.01548 l -1.65893,4.3434 -1.78964,-4.3434 h -1.02553 l 2.32251,5.42925 -1.14617,2.70457 z"
       fill="#ffffff"
       id="path10"
       style="fill:#ffffff;stroke-width:0.264583" />
  </g>
</svg>
